<svg width="97" height="89" viewBox="0 0 97 89" fill="none" xmlns="http://www.w3.org/2000/svg">
<g clip-path="url(#clip0)" filter="url(#filter0_d)">
<path d="M92.2394 55.3784C92.0203 50.3394 91.1439 44.7526 89.8294 39.4945C88.5149 34.4555 86.8717 29.7451 84.8999 26.1301C77.2318 12.6562 68.9065 14.7375 58.938 17.3666C55.7612 18.1334 52.3653 19.0098 48.8599 19.3384H47.7645C44.2591 19.0098 40.8632 18.1334 37.6864 17.3666C27.7179 14.8471 19.3926 12.6562 11.7245 26.2397C9.7527 29.8546 7.99999 34.565 6.79501 39.6041C5.48048 44.8622 4.60413 50.4489 4.38504 55.4879C4.16595 61.0747 4.71367 65.1278 5.91866 67.976C7.12364 70.605 8.87635 72.2482 11.1768 72.9055C13.2581 73.4532 15.6681 73.2341 18.1876 72.1386C22.4598 70.3859 27.3893 66.6614 32.2092 62.1701C35.6051 58.8838 41.9586 57.2407 48.3122 57.2407C54.6658 57.2407 61.0193 58.8838 64.4152 62.1701C69.2351 66.6614 74.1646 70.3859 78.4368 72.1386C80.9563 73.1245 83.3663 73.4532 85.4476 72.9055C87.6385 72.2482 89.5008 70.7146 90.7057 67.8664C91.9107 65.1278 92.4585 61.0747 92.2394 55.3784ZM86.9813 66.3328C86.324 67.8664 85.4476 68.7428 84.3522 69.0714C83.1472 69.4 81.6136 69.181 79.8609 68.5237C76.0268 66.9901 71.5355 63.5942 67.1538 59.4315C62.9911 55.2689 55.6517 53.1875 48.3122 53.1875C40.9728 53.1875 33.6333 55.2689 29.3611 59.2124C24.8698 63.3751 20.3785 66.8805 16.654 68.3046C14.9013 68.9619 13.3677 69.2905 12.1627 68.8523C11.0672 68.5237 10.1909 67.6473 9.53361 66.1137C8.65726 64.0324 8.21908 60.6365 8.43817 55.5975C8.65726 50.8871 9.42407 45.5194 10.7386 40.4804C11.9436 35.77 13.4772 31.3882 15.3394 28.1019C21.3644 17.2571 28.3752 19.0098 36.7005 21.2006C40.0964 22.077 43.6018 22.9534 47.4359 23.282C47.5454 23.282 47.5454 23.282 47.6549 23.282H48.8599C48.9695 23.282 48.9695 23.282 49.079 23.282C53.0226 22.9534 56.528 22.077 59.9239 21.2006C68.2492 19.1193 75.26 17.2571 81.285 28.1019C83.1472 31.3882 84.6808 35.6605 85.8858 40.4804C87.0908 45.5194 87.9671 50.7776 88.1862 55.5975C88.4053 60.6365 87.9671 64.0324 86.9813 66.3328Z" fill="black"/>
<path d="M38.2342 34.0173C37.1387 33.0314 35.8242 32.2646 34.2906 32.155C34.181 30.7309 33.5238 29.3069 32.5379 28.321L32.4283 28.2114C31.2233 27.0064 29.6897 26.3492 27.937 26.3492C26.1843 26.3492 24.5412 27.116 23.4457 28.2114C22.4598 29.1973 21.693 30.6214 21.5835 32.155C20.0499 32.2646 18.7353 32.9218 17.6399 33.9077L17.5303 34.0173C16.3254 35.2222 15.6681 36.7559 15.6681 38.5086C15.6681 40.2613 16.4349 41.9044 17.5303 42.9999C18.6258 44.0953 19.9403 44.7526 21.5835 44.8621C21.693 46.3957 22.3503 47.8198 23.4457 48.8057C24.6507 50.0107 26.1843 50.668 27.937 50.668C29.6897 50.668 31.3329 49.9012 32.4283 48.8057C33.4142 47.7103 34.181 46.3957 34.2906 44.8621C35.8242 44.7526 37.2483 44.0953 38.2342 42.9999C39.4391 41.7949 40.0964 40.2613 40.0964 38.5086C40.0964 36.7559 39.3296 35.1127 38.2342 34.0173ZM35.4956 40.1517C35.0574 40.5899 34.5097 40.809 33.8524 40.809H32.3188C31.2233 40.809 30.2374 41.6853 30.2374 42.8903V44.3144C30.2374 44.9717 30.0184 45.5194 29.5802 45.9576C29.142 46.3957 28.5943 46.6148 27.937 46.6148C27.2798 46.6148 26.732 46.3957 26.2939 45.9576C25.8557 45.5194 25.6366 44.9717 25.6366 44.3144V42.7808C25.6366 41.6853 24.7602 40.6995 23.5553 40.6995H22.0216C21.3644 40.6995 20.8167 40.4804 20.3785 40.0422C20.0499 39.7136 19.7212 39.1658 19.7212 38.5086C19.7212 37.8513 19.9403 37.3036 20.3785 36.8654C20.3785 36.8654 20.3785 36.8654 20.488 36.7559C20.9262 36.4272 21.4739 36.2081 22.0216 36.2081H23.5553C24.6507 36.2081 25.6366 35.3318 25.6366 34.1268V32.5932C25.6366 31.9359 25.8557 31.3882 26.2939 30.95C26.732 30.5119 27.2798 30.2928 27.937 30.2928C28.5943 30.2928 29.142 30.5119 29.5802 30.95C29.5802 30.95 29.5802 30.95 29.6897 31.0596C30.0184 31.4978 30.2374 32.0455 30.2374 32.5932V34.1268C30.2374 35.2222 31.1138 36.2081 32.3188 36.2081H33.8524C34.5097 36.2081 35.0574 36.4272 35.4956 36.8654C35.9337 37.3036 36.1528 37.8513 36.1528 38.5086C36.1528 39.1658 35.9337 39.7136 35.4956 40.1517Z" fill="black"/>
<path d="M67.3729 34.565C69.4903 34.565 71.2069 32.8484 71.2069 30.731C71.2069 28.6135 69.4903 26.8969 67.3729 26.8969C65.2554 26.8969 63.5388 28.6135 63.5388 30.731C63.5388 32.8484 65.2554 34.565 67.3729 34.565Z" fill="black"/>
<path d="M67.3729 50.1203C69.4903 50.1203 71.2069 48.4037 71.2069 46.2863C71.2069 44.1688 69.4903 42.4522 67.3729 42.4522C65.2554 42.4522 63.5388 44.1688 63.5388 46.2863C63.5388 48.4037 65.2554 50.1203 67.3729 50.1203Z" fill="black"/>
<path d="M59.5952 42.3426C61.7127 42.3426 63.4293 40.6261 63.4293 38.5086C63.4293 36.3911 61.7127 34.6746 59.5952 34.6746C57.4777 34.6746 55.7612 36.3911 55.7612 38.5086C55.7612 40.6261 57.4777 42.3426 59.5952 42.3426Z" fill="black"/>
<path d="M75.1505 42.3426C77.268 42.3426 78.9846 40.6261 78.9846 38.5086C78.9846 36.3911 77.268 34.6746 75.1505 34.6746C73.033 34.6746 71.3165 36.3911 71.3165 38.5086C71.3165 40.6261 73.033 42.3426 75.1505 42.3426Z" fill="black"/>
</g>
<defs>
<filter id="filter0_d" x="0.337646" y="0.337708" width="95.9488" height="95.9488" filterUnits="userSpaceOnUse" color-interpolation-filters="sRGB">
<feFlood flood-opacity="0" result="BackgroundImageFix"/>
<feColorMatrix in="SourceAlpha" type="matrix" values="0 0 0 0 0 0 0 0 0 0 0 0 0 0 0 0 0 0 127 0"/>
<feOffset dy="4"/>
<feGaussianBlur stdDeviation="2"/>
<feColorMatrix type="matrix" values="0 0 0 0 1 0 0 0 0 1 0 0 0 0 1 0 0 0 1 0"/>
<feBlend mode="normal" in2="BackgroundImageFix" result="effect1_dropShadow"/>
<feBlend mode="normal" in="SourceGraphic" in2="effect1_dropShadow" result="shape"/>
</filter>
<clipPath id="clip0">
<rect width="87.9488" height="87.9488" fill="white" transform="translate(4.33765 0.337708)"/>
</clipPath>
</defs>
</svg>
