<svg width="113" height="73" viewBox="0 0 113 73" fill="none" xmlns="http://www.w3.org/2000/svg">
<g filter="url(#filter0_d)">
<path d="M101.872 23.1445C101.032 23.1445 100.352 23.8249 100.352 24.6647V34.844C100.352 35.6838 101.032 36.3642 101.872 36.3642C102.711 36.3642 103.392 35.6838 103.392 34.844V24.6647C103.392 23.8249 102.711 23.1445 101.872 23.1445Z" fill="black"/>
<path d="M14.3647 34.4295C16.9425 34.4295 19.0398 32.3322 19.0398 29.7544C19.0398 27.1766 16.9425 25.0793 14.3647 25.0793C11.7869 25.0793 9.68965 27.1766 9.68965 29.7544C9.68965 32.3322 11.7867 34.4295 14.3647 34.4295ZM14.3647 28.1195C15.2661 28.1195 15.9994 28.8528 15.9994 29.7542C15.9994 30.6556 15.2661 31.3889 14.3647 31.3889C13.4634 31.3889 12.73 30.6556 12.73 29.7542C12.73 28.8528 13.4631 28.1195 14.3647 28.1195Z" fill="black"/>
<path d="M88.05 36.6156V55.773C88.05 56.6128 88.7307 57.2932 89.5702 57.2932C90.4098 57.2932 91.0904 56.6128 91.0904 55.773V36.6156C91.0904 35.7759 90.4098 35.0955 89.5702 35.0955C88.7307 35.0955 88.05 35.7759 88.05 36.6156Z" fill="black"/>
<path d="M82.0504 36.6156V55.773C82.0504 56.6128 82.731 57.2932 83.5706 57.2932C84.4101 57.2932 85.0908 56.6128 85.0908 55.773V36.6156C85.0908 35.7759 84.4101 35.0955 83.5706 35.0955C82.731 35.0955 82.0504 35.7759 82.0504 36.6156Z" fill="black"/>
<path d="M77.5707 57.2932C78.4102 57.2932 79.0909 56.6128 79.0909 55.773V36.6156C79.0909 35.7759 78.4102 35.0955 77.5707 35.0955C76.7311 35.0955 76.0505 35.7759 76.0505 36.6156V55.773C76.0505 56.6126 76.7311 57.2932 77.5707 57.2932Z" fill="black"/>
<path d="M108.607 26.3407V8.54862C108.607 3.90013 104.825 0.118347 100.177 0.118347L13.2597 0.118347C8.61124 0.118347 4.82925 3.90013 4.82925 8.54862V50.9602C4.82925 55.6089 8.61124 59.3907 13.2597 59.3907L69.1571 59.3907C69.6362 62.0794 71.9899 64.1276 74.8139 64.1276H92.3817C95.2059 64.1276 97.5592 62.0794 98.0383 59.3907H100.177C104.825 59.3905 108.607 55.6087 108.607 50.96V33.4347C108.607 32.5949 107.927 31.9145 107.087 31.9145C106.247 31.9145 105.567 32.5949 105.567 33.4347V50.96C105.567 53.9321 103.149 56.3501 100.177 56.3501H98.1289C98.1289 54.3654 98.1289 10.76 98.1289 8.54842C98.1289 7.3716 97.1716 6.4145 95.9952 6.4145L22.5214 6.4145C21.3446 6.4145 20.3873 7.3718 20.3873 8.54842V50.96C20.3873 52.1368 21.3446 53.0939 22.5214 53.0939H43.1096C43.9492 53.0939 44.6298 52.4135 44.6298 51.5738C44.6298 50.734 43.9492 50.0536 43.1096 50.0536H23.4277V9.45484L87.1991 9.45484V28.3676L74.8139 28.3676C74.6656 28.3676 74.5192 28.3751 74.3737 28.3863C73.6746 19.7754 66.4485 12.981 57.6607 12.981C48.3727 12.981 40.8873 20.5426 40.8873 29.7544C40.8873 38.9804 48.4015 46.528 57.6607 46.528C61.9701 46.528 66.0067 44.9065 69.0667 42.0567V49.268C68.762 49.1018 68.9574 49.2191 65.175 46.8132C64.329 46.2751 63.2513 46.3543 62.4933 47.0108C61.7222 47.6785 61.5132 48.7458 61.9144 49.6371L62.1021 50.054L50.2036 50.054C49.364 50.054 48.6834 50.7344 48.6834 51.5742C48.6834 52.4139 49.364 53.0943 50.2036 53.0943L63.511 53.0943C64.1758 54.3243 65.034 55.4245 66.0271 56.3504L13.2593 56.3504C10.2873 56.3504 7.86919 53.9323 7.86919 50.9602V8.54842C7.86919 5.57638 10.2873 3.15849 13.2593 3.15849L100.177 3.15849C103.149 3.15849 105.567 5.57638 105.567 8.54842V26.3405C105.567 27.1803 106.247 27.8607 107.087 27.8607C107.927 27.8607 108.607 27.1803 108.607 26.3407V26.3407ZM90.2394 14.3204V9.45484H95.0886V14.3204H90.2394ZM92.3817 28.3676H90.2396V17.3608H95.0886V29.0458C94.278 28.61 93.3266 28.3676 92.3817 28.3676ZM46.6755 37.9865C44.8509 35.5578 43.9277 32.6359 43.9277 29.7544C43.9277 26.8791 44.8461 23.9579 46.6755 21.5226H50.2542C52.107 21.5226 53.6144 23.03 53.6144 24.8826V34.6263C53.6144 36.4793 52.107 37.9865 50.2542 37.9865H46.6755ZM60.7116 25.6976C62.9485 25.6976 64.7684 27.5175 64.7684 29.7544C64.7684 31.9913 62.9485 33.8113 60.7116 33.8113C58.4747 33.8113 56.6548 31.9913 56.6548 29.7544C56.6548 27.5175 58.4747 25.6976 60.7116 25.6976ZM57.6607 43.4875C54.7517 43.4875 52.0531 42.5758 49.8302 41.0266H50.2542C53.4778 41.0266 56.1511 38.6308 56.5901 35.5266C57.7529 36.3593 59.1754 36.8514 60.7114 36.8514C64.6247 36.8514 67.8086 33.6678 67.8086 29.7542C67.8086 25.8407 64.6247 22.657 60.7114 22.657C59.1754 22.657 57.7529 23.1492 56.5901 23.9818C56.1509 20.8776 53.4776 18.4818 50.2542 18.4818H49.83C52.0531 16.9329 54.7517 16.021 57.6607 16.021C65.1485 16.021 71.2555 22.0447 71.3915 29.5005C69.9312 30.5865 69.0667 32.2994 69.0667 34.1145V37.3991C66.5051 41.22 62.2727 43.4875 57.6607 43.4875ZM70.4559 55.7419C68.3844 54.7353 66.8166 53.1158 65.7711 50.7956C67.0102 51.5837 67.7385 52.105 69.0434 52.5915C70.5305 53.1456 72.107 52.047 72.107 50.4721C72.107 47.239 72.107 37.5401 72.107 34.1149C72.107 32.5979 73.3744 31.408 74.8139 31.408C76.5619 31.408 90.6209 31.408 92.3815 31.408C93.8741 31.408 95.0884 32.6223 95.0884 34.1149V58.3801C95.0884 59.8727 93.8741 61.087 92.3815 61.087H74.8139C73.3213 61.087 72.107 59.8727 72.107 58.3801C72.107 57.2592 71.4469 56.2229 70.4559 55.7419Z" fill="black"/>
</g>
<defs>
<filter id="filter0_d" x="0.829224" y="0.118347" width="111.778" height="72.0092" filterUnits="userSpaceOnUse" color-interpolation-filters="sRGB">
<feFlood flood-opacity="0" result="BackgroundImageFix"/>
<feColorMatrix in="SourceAlpha" type="matrix" values="0 0 0 0 0 0 0 0 0 0 0 0 0 0 0 0 0 0 127 0"/>
<feOffset dy="4"/>
<feGaussianBlur stdDeviation="2"/>
<feColorMatrix type="matrix" values="0 0 0 0 1 0 0 0 0 1 0 0 0 0 1 0 0 0 1 0"/>
<feBlend mode="normal" in2="BackgroundImageFix" result="effect1_dropShadow"/>
<feBlend mode="normal" in="SourceGraphic" in2="effect1_dropShadow" result="shape"/>
</filter>
</defs>
</svg>
