<svg width="73" height="73" viewBox="0 0 73 73" fill="none" xmlns="http://www.w3.org/2000/svg">
<g filter="url(#filter0_d)">
<path d="M67.5535 1.1711C67.0699 0.742275 66.4281 0.536529 65.7853 0.604399L24.8227 5.15575C23.6697 5.28336 22.7972 6.25782 22.7974 7.41776V47.9707C20.734 46.7388 18.3733 46.0935 15.9703 46.1046C9.69613 46.1047 4.59167 50.1874 4.59167 55.2076C4.59167 60.2278 9.69613 64.3104 15.9701 64.3104C22.2441 64.3104 27.3486 60.2278 27.3486 55.2076V20.8445L63.7598 16.7869V43.4126C61.6957 42.183 59.3353 41.5402 56.9327 41.5534C50.6586 41.5534 45.5543 45.636 45.5543 50.6562C45.5543 55.6764 50.6587 59.7591 56.9327 59.7591C63.2067 59.7591 68.3112 55.6764 68.3112 50.6562V2.86654C68.3112 2.2193 68.0357 1.60273 67.5535 1.1711ZM15.9701 59.7589C12.2699 59.7589 9.14303 57.6744 9.14303 55.2076C9.14303 52.7408 12.2699 50.6562 15.9701 50.6562C19.6704 50.6562 22.7972 52.7408 22.7972 55.2076C22.7972 57.6744 19.6705 59.7589 15.9701 59.7589ZM56.9327 55.2076C53.2325 55.2076 50.1056 53.123 50.1056 50.6562C50.1056 48.1894 53.2325 46.1049 56.9327 46.1049C60.6329 46.1049 63.7598 48.1894 63.7598 50.6562C63.7598 53.123 60.6331 55.2076 56.9327 55.2076ZM63.7598 12.2082L27.3486 16.2545V9.46603L63.7598 5.40844V12.2082Z" fill="black"/>
</g>
<defs>
<filter id="filter0_d" x="0.591675" y="0.591675" width="71.7195" height="71.7187" filterUnits="userSpaceOnUse" color-interpolation-filters="sRGB">
<feFlood flood-opacity="0" result="BackgroundImageFix"/>
<feColorMatrix in="SourceAlpha" type="matrix" values="0 0 0 0 0 0 0 0 0 0 0 0 0 0 0 0 0 0 127 0"/>
<feOffset dy="4"/>
<feGaussianBlur stdDeviation="2"/>
<feColorMatrix type="matrix" values="0 0 0 0 1 0 0 0 0 1 0 0 0 0 1 0 0 0 1 0"/>
<feBlend mode="normal" in2="BackgroundImageFix" result="effect1_dropShadow"/>
<feBlend mode="normal" in="SourceGraphic" in2="effect1_dropShadow" result="shape"/>
</filter>
</defs>
</svg>
